<svg width="406" height="349" xmlns="http://www.w3.org/2000/svg" xmlns:xlink="http://www.w3.org/1999/xlink" xml:space="preserve" overflow="hidden"><defs><clipPath id="clip0"><rect x="363" y="824" width="406" height="349"/></clipPath></defs><g clip-path="url(#clip0)" transform="translate(-363 -824)"><path d="M708 997.5 708 1000.5C708 1095.77 630.769 1173 535.5 1173L399.963 1173C379.549 1173 363 1156.45 363 1136.04L363 861.963C363 841.549 379.549 825 399.963 825L535.5 825C630.769 825 708 902.231 708 997.5Z" fill="#84A4DF" fill-rule="evenodd"/><path d="M624 1171 624 1171C543.918 1171 478.999 1106.08 478.999 1026L479 824 769 824 769 1026C769 1106.08 704.081 1171 624 1171Z" fill="#FFEBB9" fill-rule="evenodd" fill-opacity="0.498039"/><path d="M587 910C587 892.879 600.879 879 618 879 635.121 879 649 892.879 649 910 649 927.121 635.121 941 618 941 600.879 941 587 927.121 587 910Z" fill="#404040" fill-rule="evenodd"/><path d="M653 1030 726 1074.5 653 1119Z" fill="#FFD261" fill-rule="evenodd"/></g></svg>